<?xml version="1.0" encoding="UTF-8"?>
<svg version="1.1" xmlns="http://www.w3.org/2000/svg" width="227" height="227">
<path d="M0 0 C0.95132813 0.44883545 0.95132813 0.44883545 1.921875 0.90673828 C10.92026347 5.24171193 18.51882825 10.31956529 26 17 C27.29550781 18.09828125 27.29550781 18.09828125 28.6171875 19.21875 C48.3764892 36.27541165 62.39638771 62.85760721 65 89 C66.21183994 118.87595843 66.21183994 118.87595843 62 133 C61.64808594 134.23105469 61.29617187 135.46210938 60.93359375 136.73046875 C51.98702424 166.46264868 31.63240083 190.29576043 4.4375 204.9375 C-3.12864253 208.8453541 -10.77580505 211.74011884 -19 214 C-20.0725 214.31839844 -21.145 214.63679687 -22.25 214.96484375 C-46.8568141 221.14502738 -74.21268806 217.76676144 -97 207 C-97.63421875 206.70077637 -98.2684375 206.40155273 -98.921875 206.09326172 C-107.92606648 201.75549247 -115.50158671 196.66781982 -123 190 C-123.81726563 189.33742187 -124.63453125 188.67484375 -125.4765625 187.9921875 C-136.28981152 178.96398276 -145.02103025 166.71431519 -151 154 C-151.51046875 152.92492187 -152.0209375 151.84984375 -152.546875 150.7421875 C-163.09908395 127.39150729 -166.3507307 98.80124587 -159 74 C-158.52433594 72.24042969 -158.52433594 72.24042969 -158.0390625 70.4453125 C-153.6460854 55.7085879 -146.34019 41.42539806 -136 30 C-135.33871094 29.19820312 -134.67742187 28.39640625 -133.99609375 27.5703125 C-101.91490995 -10.35992691 -44.35407799 -20.95682798 0 0 Z " fill="#EFEFEF" transform="translate(162,10)"/>
<path d="M0 0 C1.875 0.8125 1.875 0.8125 2.875 2.8125 C2.95842159 4.26098582 2.98232861 5.71320869 2.97265625 7.1640625 C2.96782227 8.44023438 2.96782227 8.44023438 2.96289062 9.7421875 C2.95032227 11.07636719 2.95032227 11.07636719 2.9375 12.4375 C2.93298828 13.3346875 2.92847656 14.231875 2.92382812 15.15625 C2.91202591 17.37506648 2.89556155 19.59375018 2.875 21.8125 C3.48585953 21.80583817 4.09671906 21.79917633 4.72608948 21.79231262 C11.10160035 21.72578343 17.47701209 21.68062644 23.8527832 21.64770508 C26.23010262 21.63264748 28.60739439 21.61219711 30.98461914 21.58618164 C34.40778439 21.54966597 37.83058132 21.53274291 41.25390625 21.51953125 C42.31146622 21.50404739 43.36902618 21.48856354 44.45863342 21.47261047 C52.79477829 21.47072252 58.63228751 22.90723142 64.875 28.8125 C70.23876155 35.66619531 70.02738844 42.30568055 70.05200195 50.63818359 C70.05857315 51.61132004 70.06514435 52.58445648 70.07191467 53.58708191 C70.09156368 56.79503465 70.10328947 60.00294084 70.11328125 63.2109375 C70.11735678 64.30973866 70.1214323 65.40853981 70.12563133 66.54063797 C70.14645291 72.3529364 70.16077341 78.16521146 70.17016602 83.97753906 C70.18124235 89.9718689 70.21566793 95.96582878 70.25533772 101.96002769 C70.28150248 106.57893556 70.28985759 111.19775504 70.29344749 115.8167305 C70.29831113 118.02626682 70.30991869 120.23579925 70.32848549 122.44526291 C70.35288088 125.53981577 70.35191128 128.63340739 70.3449707 131.72802734 C70.36418579 133.08738152 70.36418579 133.08738152 70.38378906 134.47419739 C70.32273039 141.96741163 68.39405455 147.23619421 63.125 152.625 C56.67642396 156.96538772 52.29994239 158.02666821 44.5859375 157.5859375 C30.19298051 156.22910352 30.19298051 156.22910352 17.10107422 160.81103516 C12.671211 165.74979218 9.81256919 171.36903363 7.06494141 177.36474609 C5.38328087 180.82398462 3.68811977 183.17658462 0.875 185.8125 C-1.63671875 186.57421875 -1.63671875 186.57421875 -4.125 185.8125 C-6.00589526 183.76591413 -7.43142853 181.92425289 -8.9375 179.625 C-9.32486328 179.06619141 -9.71222656 178.50738281 -10.11132812 177.93164062 C-10.51416016 177.34189453 -10.91699219 176.75214844 -11.33203125 176.14453125 C-11.9974292 175.17882202 -11.9974292 175.17882202 -12.67626953 174.19360352 C-14.125 171.8125 -14.125 171.8125 -15.61669922 168.46069336 C-17.47616602 164.64280752 -19.11403361 161.82128236 -22.125 158.8125 C-27.99672718 157.15338646 -33.57847777 157.43088144 -39.625 157.75 C-42.73929105 157.85117137 -45.85320285 157.91737754 -48.96875 157.96484375 C-49.7041098 157.97865585 -50.4394696 157.99246796 -51.19711304 158.00669861 C-58.05531696 158.02837969 -61.95704562 156.54623669 -67.1484375 152.06640625 C-67.59445313 151.50824219 -68.04046875 150.95007813 -68.5 150.375 C-68.96148437 149.81941406 -69.42296875 149.26382813 -69.8984375 148.69140625 C-73.49229314 143.1861688 -73.42693852 138.11341406 -73.43139648 131.7331543 C-73.43972 130.7211496 -73.44804352 129.7091449 -73.45661926 128.66647339 C-73.4807012 125.32318262 -73.48948932 121.98008704 -73.49609375 118.63671875 C-73.50506151 116.30890342 -73.51418339 113.98108868 -73.52345276 111.65327454 C-73.53994046 106.77347412 -73.54764248 101.8937423 -73.55053711 97.01391602 C-73.55592026 90.76946416 -73.59359937 84.52565937 -73.63928127 78.28139019 C-73.66906381 73.47288169 -73.67626094 68.66452877 -73.67726326 63.85593605 C-73.68146321 61.55428924 -73.69388837 59.25264186 -73.71478081 56.95108604 C-73.74171829 53.72692017 -73.73686172 50.50425127 -73.72436523 47.2800293 C-73.73919952 46.33481918 -73.75403381 45.38960907 -73.76931763 44.41575623 C-73.69057073 37.25973828 -71.641758 32.44084644 -66.64687252 27.28747082 C-62.05332686 23.21278486 -57.86843475 21.55584095 -51.78393555 21.58544922 C-50.22288338 21.58567581 -50.22288338 21.58567581 -48.6302948 21.58590698 C-46.96284966 21.60139084 -46.96284966 21.60139084 -45.26171875 21.6171875 C-44.11459915 21.6200174 -42.96747955 21.62284729 -41.78559875 21.62576294 C-38.12779232 21.63694303 -34.47023222 21.66204405 -30.8125 21.6875 C-28.33008167 21.69753259 -25.84765949 21.70665795 -23.36523438 21.71484375 C-17.28507244 21.73687529 -11.20505382 21.77033152 -5.125 21.8125 C-5.14071045 21.25264404 -5.1564209 20.69278809 -5.17260742 20.1159668 C-5.23499848 17.5774141 -5.27400218 15.03902271 -5.3125 12.5 C-5.33763672 11.61892578 -5.36277344 10.73785156 -5.38867188 9.83007812 C-5.39833984 8.98251953 -5.40800781 8.13496094 -5.41796875 7.26171875 C-5.4336792 6.48143311 -5.44938965 5.70114746 -5.46557617 4.8972168 C-4.9271841 1.60163978 -3.43397957 -0.3029982 0 0 Z " fill="#D09D58" transform="translate(114.125,28.1875)"/>
<path d="M0 0 C0.89294769 -0.00426498 1.78589539 -0.00852997 2.7059021 -0.01292419 C4.17941383 -0.01224442 4.17941383 -0.01224442 5.68269348 -0.0115509 C6.71537354 -0.01490952 7.74805359 -0.01826813 8.81202698 -0.02172852 C12.24134002 -0.03126184 15.67060432 -0.03318306 19.09992981 -0.03425598 C21.4792686 -0.03746777 23.85860719 -0.04083179 26.23794556 -0.04434204 C31.23401853 -0.05033988 36.23007419 -0.05218136 41.22615051 -0.05158997 C47.62413388 -0.0514885 54.02200588 -0.06512133 60.41996288 -0.08236217 C65.33822131 -0.0934908 70.25645294 -0.09550888 75.17472267 -0.09498024 C77.53299149 -0.0961598 79.89126101 -0.10058022 82.24951744 -0.10831261 C85.55284234 -0.11812624 88.85592709 -0.11522848 92.15925598 -0.10920715 C93.13147598 -0.11482666 94.10369598 -0.12044617 95.1053772 -0.12623596 C101.89681236 -0.09483009 107.41615266 -0.01251731 112.64648438 4.80879211 C115.09886534 8.69538064 115.35266836 10.77121198 115.31208801 15.33244324 C115.31269069 16.03693163 115.31329336 16.74142002 115.3139143 17.46725655 C115.31020633 19.72929748 115.27225322 21.98923206 115.23274231 24.25090027 C115.22538317 25.65461741 115.22028703 27.05834828 115.21748352 28.46208191 C115.19135818 33.64450258 115.12155134 38.82662877 115.05696106 44.00871277 C114.95383606 55.59996277 114.85071106 67.19121277 114.74446106 79.13371277 C73.16446106 79.13371277 31.58446106 79.13371277 -11.25553894 79.13371277 C-11.35866394 67.37746277 -11.46178894 55.62121277 -11.56803894 43.50871277 C-11.61355896 39.80443054 -11.65907898 36.10014832 -11.70597839 32.28361511 C-11.7285614 27.74040222 -11.7285614 27.74040222 -11.73275757 25.60969543 C-11.74040723 24.12988253 -11.75793462 22.65009971 -11.78341675 21.17048645 C-11.82019895 18.92119201 -11.82506363 16.67379171 -11.82316589 14.42424011 C-11.83426895 13.15849152 -11.84537201 11.89274292 -11.85681152 10.58863831 C-11.06042647 6.01259223 -9.50166294 4.40154684 -6.25553894 1.13371277 C-3.93104833 -0.02853254 -2.58826005 0.00557436 0 0 Z " fill="#EFEFEE" transform="translate(61.25553894042969,58.86628723144531)"/>
<path d="M0 0 C41.91 0 83.82 0 127 0 C127 20 127 20 123 26 C118.38525637 29.97835493 114.70779983 30.49054199 108.8203125 30.22265625 C107.23570101 30.20303914 105.65106233 30.18552641 104.06640625 30.16992188 C101.59403819 30.12453707 99.12558344 30.06252358 96.65478516 29.96264648 C86.80614056 29.31385817 86.80614056 29.31385817 78.24316406 33.27612305 C76.18380935 36.09225462 74.56670088 38.88720569 73 42 C72.17690046 43.24695229 71.33666593 44.48303422 70.46875 45.69921875 C69.8190625 46.68535156 69.169375 47.67148438 68.5 48.6875 C67.8296875 49.70199219 67.159375 50.71648437 66.46875 51.76171875 C65.9840625 52.50035156 65.499375 53.23898438 65 54 C61.33978836 52.54296472 59.88148029 50.76719602 57.80078125 47.46484375 C57.23166016 46.57345703 56.66253906 45.68207031 56.07617188 44.76367188 C55.49416016 43.83103516 54.91214844 42.89839844 54.3125 41.9375 C53.14268773 40.09196555 51.97215383 38.24688825 50.80078125 36.40234375 C50.28684814 35.58241943 49.77291504 34.76249512 49.2434082 33.91772461 C48.14112523 32.07158485 48.14112523 32.07158485 47 31 C44.26025603 30.88917418 41.54148623 30.83835746 38.80078125 30.82421875 C37.09959717 30.80100813 35.39842527 30.7768903 33.69726562 30.75195312 C31.00911468 30.71691479 28.32140753 30.68754464 25.63305664 30.67407227 C23.042579 30.65854039 20.45341061 30.61828386 17.86328125 30.57421875 C17.0661824 30.57612717 16.26908356 30.57803558 15.4478302 30.58000183 C10.2145478 30.46601313 7.05481142 29.60147847 3 26 C0 20 0 20 0 0 Z " fill="#EEEDEC" transform="translate(49,147)"/>
<path d="M0 0 C3.29714793 0.32971479 4.6226839 0.6226839 7 3 C7.26069641 5.00462341 7.26069641 5.00462341 7.2746582 7.49389648 C7.28419022 8.42503769 7.29372223 9.35617889 7.30354309 10.3155365 C7.30263168 11.32387039 7.30172028 12.33220428 7.30078125 13.37109375 C7.30506638 14.40436295 7.3093515 15.43763214 7.31376648 16.50221252 C7.31951683 18.69035102 7.32000488 20.87850863 7.31567383 23.06665039 C7.31251609 26.42041559 7.3359571 29.77329724 7.36132812 33.12695312 C7.3636012 35.24999888 7.36430457 37.37304702 7.36328125 39.49609375 C7.372491 40.50240341 7.38170074 41.50871307 7.39118958 42.54551697 C7.38496078 43.47981033 7.37873199 44.4141037 7.37231445 45.37670898 C7.37294388 46.19896469 7.3735733 47.0212204 7.3742218 47.86839294 C6.91021505 50.5114246 6.15178062 51.43229442 4 53 C-0.42105263 52.57894737 -0.42105263 52.57894737 -2 51 C-2.10358779 49.47613769 -2.13851138 47.94753014 -2.14526367 46.42016602 C-2.15164352 45.44568008 -2.15802338 44.47119415 -2.16459656 43.46717834 C-2.16570938 42.40679855 -2.1668222 41.34641876 -2.16796875 40.25390625 C-2.17129715 39.17245834 -2.17462555 38.09101044 -2.17805481 36.97679138 C-2.18312877 34.68432034 -2.18546299 32.39184188 -2.18530273 30.09936523 C-2.18748845 26.58109433 -2.20563728 23.06313719 -2.22460938 19.54492188 C-2.22754328 17.32291775 -2.22952809 15.10091212 -2.23046875 12.87890625 C-2.23765427 11.82055069 -2.24483978 10.76219513 -2.25224304 9.67176819 C-2.24916641 8.6941301 -2.24608978 7.716492 -2.24291992 6.70922852 C-2.24434494 5.84620621 -2.24576996 4.9831839 -2.24723816 4.0940094 C-2 2 -2 2 0 0 Z " fill="#D5A563" transform="translate(207,78)"/>
<path d="M0 0 C3.29714793 0.32971479 4.6226839 0.6226839 7 3 C7.26069641 5.00462341 7.26069641 5.00462341 7.2746582 7.49389648 C7.28419022 8.42503769 7.29372223 9.35617889 7.30354309 10.3155365 C7.30263168 11.32387039 7.30172028 12.33220428 7.30078125 13.37109375 C7.30506638 14.40436295 7.3093515 15.43763214 7.31376648 16.50221252 C7.31951683 18.69035102 7.32000488 20.87850863 7.31567383 23.06665039 C7.31251609 26.42041559 7.3359571 29.77329724 7.36132812 33.12695312 C7.3636012 35.24999888 7.36430457 37.37304702 7.36328125 39.49609375 C7.372491 40.50240341 7.38170074 41.50871307 7.39118958 42.54551697 C7.38496078 43.47981033 7.37873199 44.4141037 7.37231445 45.37670898 C7.37294388 46.19896469 7.3735733 47.0212204 7.3742218 47.86839294 C6.91021505 50.5114246 6.15178062 51.43229442 4 53 C-0.42105263 52.57894737 -0.42105263 52.57894737 -2 51 C-2.10358779 49.47613769 -2.13851138 47.94753014 -2.14526367 46.42016602 C-2.15164352 45.44568008 -2.15802338 44.47119415 -2.16459656 43.46717834 C-2.16570938 42.40679855 -2.1668222 41.34641876 -2.16796875 40.25390625 C-2.17129715 39.17245834 -2.17462555 38.09101044 -2.17805481 36.97679138 C-2.18312877 34.68432034 -2.18546299 32.39184188 -2.18530273 30.09936523 C-2.18748845 26.58109433 -2.20563728 23.06313719 -2.22460938 19.54492188 C-2.22754328 17.32291775 -2.22952809 15.10091212 -2.23046875 12.87890625 C-2.23765427 11.82055069 -2.24483978 10.76219513 -2.25224304 9.67176819 C-2.24916641 8.6941301 -2.24608978 7.716492 -2.24291992 6.70922852 C-2.24434494 5.84620621 -2.24576996 4.9831839 -2.24723816 4.0940094 C-2 2 -2 2 0 0 Z " fill="#DBAA67" transform="translate(14,78)"/>
<path d="M0 0 C3.70390021 2.02666238 5.65363011 3.48044516 8 7 C8.34342312 11.25844672 8.43989287 13.93499621 6.8125 17.875 C3.79649631 21.41100433 1.08000077 21.86254536 -3.4375 22.4375 C-8.1958924 21.85313602 -9.64663763 20.35336237 -13 17 C-14.61429923 13.77140153 -14.59570657 10.49006347 -14 7 C-10.50050518 0.90199969 -6.85671452 -0.57139288 0 0 Z " fill="#D9A763" transform="translate(144,92)"/>
<path d="M0 0 C3.6578218 2.03993908 5.66946174 3.50419262 8 7 C8.73965025 11.59271203 8.60961194 15.02462089 6.125 19 C2.59305962 22.32417918 -0.04927217 22.34160904 -4.7421875 22.28125 C-8.1507503 21.85665394 -9.74615278 20.52704082 -12 18 C-13.83548272 14.91305179 -14.00207001 13.11592056 -13.9375 9.5 C-12.82276962 5.33833993 -11.28026327 3.72021832 -8 1 C-5.13391871 -0.43304064 -3.18699217 -0.30644155 0 0 Z " fill="#D9A764" transform="translate(87,92)"/>
</svg>
